<?xml version="1.0"?>
<svg xmlns="http://www.w3.org/2000/svg" xmlns:xlink="http://www.w3.org/1999/xlink" xmlns:svgjs="http://svgjs.com/svgjs" version="1.1" width="512" height="512" x="0" y="0" viewBox="0 0 24 24" style="enable-background:new 0 0 512 512" xml:space="preserve" class=""><g><path xmlns="http://www.w3.org/2000/svg" d="m23 19a1 1 0 0 1 -1 1h-12a1 1 0 0 1 -1-1 6 6 0 0 1 6-6h2a6 6 0 0 1 6 6zm-7-15a4 4 0 1 0 4 4 4 4 0 0 0 -4-4zm-9 0a4 4 0 1 0 4 4 4 4 0 0 0 -4-4zm0 15a7.94 7.94 0 0 1 2.35-5.65 5.43 5.43 0 0 0 -1.91-.35h-.88a5.57 5.57 0 0 0 -5.56 5.56v.44a1 1 0 0 0 1 1h5.18a3 3 0 0 1 -.18-1z" fill="#ffffff" data-original="#000000" style="" class=""/></g></svg>
